<svg width="616" height="248" viewBox="0 0 616 248" fill="none" xmlns="http://www.w3.org/2000/svg">
<g clip-path="url(#clip0_19_258)">
<path d="M40.3598 41.3317C40.3191 40.8743 40.4267 40.4157 40.6631 40.0388C40.8995 39.6618 41.2491 39.3913 41.649 39.276C42.4271 38.9988 43.2377 38.8509 44.0546 38.8372C44.8567 38.8026 45.6396 39.1154 46.2387 39.7098C46.8412 40.3666 47.2847 41.1823 47.5279 42.081L73.4091 102.762L90.6515 22.8991C90.6989 22.6511 90.7934 22.4172 90.9286 22.2132C91.0638 22.0091 91.2367 21.8396 91.4356 21.7159C91.8937 21.4896 92.3923 21.3833 92.8931 21.4053C93.7377 21.4709 94.5499 21.7932 95.2411 22.3371C96.1272 22.9615 96.5008 23.6895 96.362 24.521L79.1196 112.233C78.5289 113.478 77.6695 114.017 76.5413 113.849C75.3415 113.651 74.1953 113.163 73.1832 112.42C72.055 111.626 70.9881 110.729 69.9934 109.738C68.9833 108.752 68.2184 108.004 67.6986 107.495L40.4883 42.081C40.4468 42.0308 40.4152 41.9716 40.3954 41.9071C40.3756 41.8426 40.368 41.7743 40.3731 41.7064L40.3598 41.3317Z" fill="white"/>
<path d="M101.962 96.7824C101.448 93.091 101.186 89.3616 101.178 85.6262C101.181 81.9413 101.387 78.2601 101.793 74.6031C102.201 70.8597 102.792 66.975 103.565 62.949C104.339 58.923 105.255 54.5831 106.312 49.9293C106.309 49.0242 106.542 48.1374 106.981 47.3757C107.444 46.5816 108.056 45.9088 108.775 45.4037C109.513 44.871 110.302 44.4328 111.128 44.0973C111.879 43.7824 112.673 43.6155 113.476 43.6043C115.104 43.5985 116.685 44.2146 117.955 45.3495C119.343 46.5622 120.569 47.988 121.596 49.5842C122.679 51.2463 123.616 53.0192 124.396 54.8789C125.179 56.7522 125.832 58.3528 126.354 59.6805C126.997 62.9432 127.428 66.2531 127.644 69.5845C127.905 73.3364 127.923 77.1044 127.697 80.8591C127.477 84.6631 126.954 88.4378 126.133 92.1385C125.366 95.6735 124.199 99.0859 122.66 102.294C121.234 105.279 119.274 107.908 116.9 110.019C114.491 112.109 111.617 113.432 108.585 113.849C106.866 113.849 105.561 113.207 104.669 111.922C103.721 110.515 103.052 108.9 102.706 107.184C102.296 105.328 102.072 103.426 102.037 101.515C101.979 99.6072 101.962 98.0247 101.962 96.7824ZM107.672 96.4078C107.672 97.236 107.672 98.0247 107.73 98.7741C107.764 99.5047 107.838 100.232 107.951 100.953C108.062 101.663 108.213 102.407 108.394 103.196C108.576 103.985 108.837 104.882 109.125 105.878H109.794C111.503 105.915 113.155 105.197 114.388 103.881C115.753 102.4 116.855 100.645 117.636 98.71C118.583 96.4283 119.332 94.0512 119.873 91.611C120.458 89.0642 120.925 86.4859 121.273 83.886C121.61 81.3521 121.834 78.9841 121.946 76.7821C122.057 74.5834 122.115 72.8136 122.115 71.4875V69.0176C122.115 67.9396 122.076 66.7154 122 65.3449C121.923 63.9744 121.793 62.5612 121.61 61.1052C121.442 59.7494 121.16 58.4141 120.768 57.117C120.46 56.0447 119.966 55.0499 119.315 54.1887C119.021 53.8212 118.657 53.5304 118.251 53.337C117.844 53.1436 117.404 53.0523 116.962 53.0696C115.317 52.4879 113.917 52.6128 112.763 53.4443C111.606 54.2725 110.672 55.6676 109.963 57.6149C109.172 59.9254 108.628 62.3312 108.341 64.7829C107.946 67.8788 107.721 70.9986 107.668 74.1249C107.591 77.5364 107.572 81.1516 107.61 84.9706C107.649 88.7895 107.669 92.6019 107.672 96.4078Z" fill="white"/>
<path d="M131.972 22.1448C131.972 21.1588 132.269 20.4835 132.858 20.1482C133.486 19.811 134.176 19.6422 134.874 19.6552C136.367 19.6552 137.297 20.1975 137.674 21.2772C138.064 22.4742 138.253 23.7408 138.232 25.014C137.865 25.8358 137.279 26.511 136.553 26.9465C135.915 27.3127 135.177 27.4006 134.484 27.193C133.731 26.9482 133.092 26.3904 132.699 25.6351C132.16 24.5736 131.908 23.3618 131.972 22.1448ZM134.435 111.375C134.435 105.978 134.342 100.288 134.156 94.3027C133.97 88.3179 133.782 82.2756 133.593 76.1757C133.407 70.066 133.351 64.0632 133.425 58.1671C133.478 52.6271 133.816 47.0951 134.435 41.5979C134.779 41.474 135.137 41.4108 135.498 41.4106C136.057 41.3662 136.451 41.3465 136.672 41.3465C137.541 41.3047 138.406 41.4975 139.193 41.9085C139.828 42.2832 140.146 43.0933 140.146 44.3389C140.146 49.2392 140.126 54.5765 140.088 60.351C140.05 66.1255 140.013 71.9722 139.977 77.8913C139.936 83.8301 139.917 89.7081 139.92 95.5253C139.923 101.343 139.998 106.617 140.146 111.35C140.221 112.765 139.977 113.697 139.419 114.155C138.812 114.626 138.085 114.866 137.346 114.84C136.555 114.872 135.774 114.633 135.109 114.155C134.506 113.707 134.28 112.775 134.435 111.36V111.375Z" fill="white"/>
<path d="M147.872 85.1924C148.096 82.2016 148.321 78.9414 148.545 75.4116C148.77 71.8818 149.124 68.3718 149.609 64.8815C150.067 61.5205 150.702 58.1921 151.509 54.9134C152.219 51.9667 153.278 49.1384 154.659 46.5031C155.868 44.1686 157.533 42.1669 159.532 40.6464C161.473 39.1938 163.824 38.5085 166.585 38.5907C167.448 38.5582 168.304 38.7839 169.062 39.2443C169.82 39.7047 170.453 40.383 170.896 41.2084C171.973 43.1504 172.696 45.3098 173.022 47.563C173.431 50.0888 173.652 52.6478 173.682 55.2141C173.718 57.8433 173.737 59.9796 173.74 61.6229C173.01 61.6262 172.291 61.4291 171.647 61.049C171.002 60.6689 170.452 60.1175 170.045 59.4439C169.04 57.919 168.281 56.2107 167.803 54.3957C167.298 52.5682 166.923 50.6988 166.683 48.8053L166.346 45.1917C166.214 45.1839 166.084 45.1624 165.956 45.1277C165.828 45.0957 165.697 45.0743 165.566 45.0636C164.293 45.0636 163.112 45.854 162.022 47.4348C160.794 49.3011 159.779 51.3296 159.001 53.4739C158.004 56.1416 157.198 58.8927 156.591 61.7017C155.923 64.732 155.363 67.7013 154.912 70.6099C154.46 73.5185 154.105 76.1971 153.848 78.6456C153.625 80.5259 153.495 82.4186 153.458 84.3149C153.308 86.6799 153.308 89.0538 153.458 91.4188C153.581 93.8873 154.029 96.3224 154.787 98.6459C155.477 100.789 156.543 102.758 157.924 104.438C159.37 106.125 161.245 107.278 163.298 107.741C166.059 107.741 168.3 107.326 170.019 106.494C171.631 105.747 173.066 104.597 174.214 103.132C175.292 101.725 176.144 100.123 176.735 98.3945C177.325 96.6493 177.904 94.8417 178.471 92.9717C179.038 91.1016 179.617 89.2529 180.208 87.4256C180.822 85.5812 181.7 83.8597 182.809 82.3282C183.695 82.0784 184.347 82.0981 184.767 82.3873C185.163 82.6598 185.461 83.0785 185.608 83.5705C185.764 84.1358 185.838 84.7246 185.83 85.3156V86.6861C185.837 90.1268 185.308 93.5429 184.266 96.7824C183.246 99.9685 181.687 102.907 179.672 105.439C177.648 107.983 175.195 110.058 172.451 111.547C169.463 113.13 166.185 113.918 162.877 113.849C159.891 113.849 157.409 112.791 155.43 110.675C153.428 108.521 151.863 105.916 150.84 103.033C149.747 100.009 148.977 96.8518 148.545 93.6273C148.134 90.838 147.909 88.0187 147.872 85.1924Z" fill="white"/>
<path d="M195.909 86.9376L194.23 87.3122C193.455 87.4806 192.662 87.5221 191.877 87.4355C191.108 87.3713 190.361 87.1152 189.693 86.6861C189.374 86.4663 189.117 86.152 188.949 85.7785C188.782 85.405 188.711 84.9869 188.745 84.5712C188.706 84.1232 188.825 83.6758 189.077 83.324C189.303 83.0726 189.675 82.7028 190.198 82.2C191.924 80.594 193.35 78.6278 194.398 76.4124C195.594 73.9503 196.66 71.412 197.588 68.8106C198.556 66.1156 199.59 63.4157 200.689 60.7109C201.705 58.1416 202.963 55.6992 204.441 53.4246C205.841 51.2829 207.635 49.498 209.704 48.1891C211.795 46.8745 214.371 46.2517 217.431 46.3207C218.891 46.3628 220.333 46.6967 221.688 47.3067C223.248 47.9683 224.717 48.8711 226.052 49.9885C227.386 51.0964 228.526 52.4685 229.414 54.0359C230.301 55.6021 230.763 57.4201 230.743 59.2713C231.115 59.9369 230.743 60.8883 229.68 62.1356C228.319 63.6361 226.836 64.9927 225.25 66.1879C223.383 67.6406 221.274 69.1343 218.924 70.6691C216.573 72.2039 214.315 73.6369 212.15 74.9679C209.982 76.2826 208.078 77.446 206.439 78.4582C205.3 79.0991 204.213 79.8496 203.192 80.7013C202.797 81.6141 202.499 82.5754 202.306 83.5655C202.08 84.6501 201.912 85.6657 201.801 86.622C201.69 87.5784 201.615 88.451 201.579 89.2348C201.544 90.0187 201.522 90.63 201.522 91.0441C201.522 92.6216 201.466 94.3668 201.353 96.2796C201.236 98.0908 201.312 99.9111 201.579 101.702C201.786 103.293 202.431 104.773 203.427 105.937C204.392 107.061 206.035 107.623 208.353 107.623C210.79 107.631 213.184 106.922 215.295 105.567C217.49 104.168 219.521 102.472 221.342 100.519C223.203 98.5279 224.905 96.3605 226.428 94.0414C227.958 91.7146 229.339 89.5339 230.571 87.4996C231.802 85.4652 232.904 83.7825 233.875 82.4514C234.841 81.1253 235.648 80.4795 236.339 80.4795C237.155 80.4914 237.966 80.6376 238.744 80.9133C239.144 81.0286 239.494 81.2992 239.73 81.6761C239.967 82.0531 240.074 82.5116 240.033 82.969C240.033 84.4644 239.491 86.2507 238.408 88.3278C237.162 90.6609 235.739 92.871 234.155 94.9337C232.284 97.3866 230.264 99.6926 228.107 101.835C225.931 104.034 223.63 106.074 221.218 107.944C219.067 109.626 216.782 111.085 214.391 112.302C212.15 113.426 210.171 113.988 208.455 113.988C205.097 113.988 202.558 113.074 200.839 111.247C199.088 109.366 197.826 106.993 197.189 104.379C196.464 101.522 196.087 98.5686 196.068 95.5993C196.033 92.4836 195.979 89.5964 195.909 86.9376ZM216.513 53.2915C215.243 53.2915 213.9 53.9767 212.482 55.3472C210.976 56.8246 209.638 58.4998 208.495 60.3362C207.303 62.2075 206.289 64.2116 205.469 66.3161C204.683 68.3505 204.292 70.0315 204.295 71.3593C205.417 71.3593 207.042 70.8827 209.168 69.9296C211.36 68.9385 213.476 67.7497 215.495 66.3752C217.449 65.0784 219.287 63.5761 220.984 61.8891C222.552 60.3165 223.336 58.8178 223.336 57.4079C223.34 57.0502 223.271 56.6961 223.136 56.3718C223 56.0476 222.8 55.7614 222.552 55.5345C221.998 55.0156 221.375 54.5965 220.704 54.2922C220 53.9639 219.269 53.7129 218.52 53.5429C217.86 53.3862 217.188 53.302 216.513 53.2915Z" fill="white"/>
<path d="M297.134 96.7824C296.621 93.091 296.359 89.3616 296.35 85.6262C296.355 81.9412 296.562 78.26 296.97 74.6031C297.378 70.8597 297.969 66.975 298.742 62.949C299.516 58.923 300.43 54.5831 301.485 49.9293C301.492 49.0207 301.735 48.1338 302.185 47.3757C302.642 46.5848 303.246 45.9124 303.957 45.4037C304.694 44.871 305.483 44.4327 306.309 44.0973C307.062 43.7819 307.858 43.615 308.662 43.6043C310.29 43.5993 311.871 44.2152 313.141 45.3495C314.527 46.5624 315.752 47.9882 316.778 49.5842C317.86 51.2463 318.797 53.0192 319.578 54.8789C320.36 56.7522 321.015 58.3527 321.54 59.6805C322.181 62.9433 322.611 66.2532 322.825 69.5845C323.086 73.3364 323.105 77.1042 322.883 80.8591C322.659 84.6629 322.135 88.4374 321.314 92.1385C320.547 95.6735 319.38 99.0859 317.841 102.294C316.416 105.28 314.456 107.909 312.082 110.019C309.667 112.123 306.783 113.458 303.74 113.879C302.021 113.879 300.714 113.237 299.819 111.951C298.873 110.544 298.205 108.929 297.861 107.214C297.449 105.358 297.224 103.456 297.187 101.545C297.152 99.6072 297.134 98.0247 297.134 96.7824ZM302.845 96.4077C302.845 97.236 302.845 98.0247 302.902 98.7741C302.936 99.505 303.012 100.233 303.128 100.953C303.239 101.663 303.385 102.407 303.571 103.196C303.757 103.985 304.014 104.882 304.298 105.878H304.971C306.678 105.914 308.328 105.196 309.561 103.881C310.93 102.402 312.035 100.647 312.817 98.71C313.757 96.4274 314.498 94.0503 315.032 91.611C315.619 89.0648 316.086 86.4863 316.432 83.886C316.769 81.352 316.993 78.9841 317.106 76.7821C317.216 74.5834 317.274 72.8136 317.274 71.4875V69.0176C317.274 67.938 317.234 66.7154 317.163 65.3449C317.092 63.9744 316.955 62.5595 316.769 61.1052C316.603 59.7495 316.323 58.4143 315.932 57.117C315.622 56.0444 315.127 55.0495 314.474 54.1887C314.18 53.8212 313.817 53.5304 313.41 53.337C313.004 53.1436 312.564 53.0523 312.122 53.0696C310.483 52.4879 309.084 52.6128 307.926 53.4443C306.766 54.2725 305.835 55.6676 305.126 57.6149C304.338 59.9172 303.797 62.3148 303.514 64.7582C303.121 67.8544 302.896 70.974 302.84 74.1003C302.767 77.5117 302.749 81.1269 302.787 84.9459C302.826 88.7649 302.845 92.5855 302.845 96.4077Z" fill="white"/>
<path d="M336.665 67.8739C336.202 67.9261 335.751 68.0732 335.336 68.3077C334.738 68.5986 334.122 68.9338 333.489 69.2937C332.855 69.6536 332.239 70.0233 331.641 70.3536C331.161 70.6505 330.626 70.8193 330.077 70.8466C329.396 70.8669 328.722 70.6974 328.115 70.3536C327.557 70.0233 327.277 69.3676 327.277 68.3817C327.295 67.9263 327.399 67.4801 327.582 67.0724C327.766 66.6647 328.024 66.3045 328.341 66.0154C329.126 65.1962 329.967 64.4462 330.857 63.7723C331.829 63.0229 332.8 62.3163 333.772 61.6524C334.582 61.1437 335.303 60.4755 335.899 59.6805C335.748 58.3659 335.636 55.873 335.562 52.202C335.488 48.5309 335.507 44.357 335.619 39.6802C335.732 34.987 335.993 30.1476 336.404 25.1618C336.743 20.6516 337.379 16.1749 338.304 11.7675C339.164 7.82364 340.302 4.72935 341.72 2.48464C343.138 0.239921 344.967 -0.466689 347.209 0.364809C348.741 0.354822 350.234 0.901812 351.462 1.92263C352.746 2.98082 353.847 4.29053 354.709 5.78762C355.614 7.34945 356.312 9.0479 356.783 10.8308C357.226 12.4338 357.465 14.0984 357.491 15.7755C357.475 16.6966 357.303 17.6062 356.986 18.4573C356.864 18.8901 356.617 19.2657 356.283 19.5252C355.948 19.7848 355.546 19.9137 355.139 19.8919H354.802C354.759 19.8887 354.718 19.8757 354.679 19.8537C354.641 19.8316 354.608 19.801 354.581 19.7637C352.788 14.709 351.271 11.4931 350.031 10.116C348.79 8.73895 347.757 8.71923 346.93 10.0569C346.07 11.3879 345.36 13.7559 344.799 17.1607C344.238 20.5656 343.767 24.4897 343.386 28.9332C343.013 33.3799 342.678 38.0731 342.38 43.0128C342.082 47.9524 341.786 52.5421 341.494 56.7818C342.763 56.4429 344.014 56.0266 345.242 55.5345C346.178 55.1556 347.095 54.7195 347.989 54.2281C348.807 53.7746 349.545 53.3177 350.204 52.8576C350.914 52.3814 351.665 51.9851 352.445 51.6745C354.008 50.8463 355.743 50.0361 357.651 49.2441C359.42 48.484 361.297 48.0832 363.193 48.0609C363.193 50.4699 362.802 52.4632 362.019 54.0408C361.278 55.5613 360.245 56.881 358.993 57.9058C357.729 58.9201 356.304 59.6594 354.793 60.0848C353.23 60.5432 351.639 60.9376 350.035 61.2679C348.432 61.5982 346.934 61.9334 345.499 62.2539C344.234 62.5362 342.997 62.9539 341.804 63.5011C342.028 68.9042 342.346 73.6402 342.757 77.7089C343.167 81.7777 343.541 85.3929 343.877 88.5545C344.214 91.7162 344.475 94.6034 344.662 97.2162C344.849 99.8094 344.829 102.416 344.604 105.005C344.604 105.587 344.604 106.396 344.662 107.436C344.698 108.455 344.661 109.475 344.551 110.487C344.463 111.403 344.174 112.28 343.709 113.041C343.463 113.402 343.139 113.689 342.768 113.874C342.396 114.059 341.988 114.137 341.583 114.101C340.857 114.161 340.138 113.916 339.567 113.416C339.124 112.962 338.818 112.025 338.681 110.611C338.235 103.88 337.88 98.1693 337.617 93.4794C337.355 88.7895 337.149 84.8456 337.002 81.6478C336.851 78.4467 336.776 75.9325 336.776 74.1052V68.3718C336.776 68.0316 336.74 67.8739 336.665 67.8739Z" fill="white"/>
<path d="M8.18322 212.916C7.28972 208.996 6.59436 205.035 6.1004 201.053C5.41596 196.013 4.92572 190.55 4.62967 184.665C4.33362 178.78 4.2821 172.739 4.47512 166.543C4.61946 160.792 5.25126 155.097 6.36235 149.532C7.43244 144.345 9.03145 139.932 11.1594 136.293C13.2873 132.654 16.0817 130.417 19.5425 129.581C21.2991 129.095 23.1585 129.085 24.9655 129.551C26.5345 129.999 28.007 130.835 29.2676 131.993C30.5479 133.181 31.6327 134.604 32.4691 136.193C33.3817 137.941 34.0762 139.807 34.5328 141.737C33.2866 142.115 31.9332 141.968 30.7294 141.326C29.6495 140.699 28.6167 139.972 27.6426 139.154C26.6754 138.359 25.7042 137.623 24.7292 136.945C24.214 136.61 23.6479 136.391 23.0651 136.299C22.4823 136.208 21.895 136.247 21.3386 136.413C18.756 137.037 16.7204 138.972 15.2321 142.22C13.5989 145.936 12.47 149.918 11.8797 154.045C11.1131 159.035 10.6912 164.101 10.6174 169.201C10.5146 174.675 10.5966 179.96 10.8634 185.058C11.1301 190.155 11.5167 194.75 12.023 198.842C12.3452 201.895 12.8354 204.934 13.491 207.941C14.1095 210.473 14.8513 212.973 15.7132 215.431C16.4767 217.676 17.5564 219.791 18.9113 221.696C20.138 223.422 21.7497 224.776 23.5757 225.614C25.3987 226.453 27.7178 226.532 30.5329 225.853C33.7441 225.078 36.6526 223.144 39.2585 220.053C41.9327 216.854 44.2081 213.274 46.0302 209.397C47.9127 205.448 49.4123 201.276 50.5055 196.946C51.4654 193.368 52.0999 189.677 52.4 185.925C52.7198 185.715 53.0686 185.559 53.4354 185.462C53.9844 185.284 54.3401 185.173 54.5036 185.133C55.415 184.908 56.3526 184.801 57.2978 184.814C58.1971 184.837 58.822 185.563 59.1725 186.99C59.3507 190.352 58.966 193.688 58.0375 196.833C56.9969 200.579 55.6649 204.206 54.0558 207.673C52.3705 211.325 50.3962 214.796 48.1543 218.048C46.0826 221.107 43.8002 223.983 41.3257 226.652C39.3564 228.838 37.1063 230.698 34.6394 232.178C32.471 233.412 30.5692 233.8 28.921 233.345C26.4787 234.009 23.8571 233.712 21.5009 232.503C19.1996 231.306 17.1265 229.607 15.4151 227.513C13.6375 225.347 12.1259 222.94 10.9224 220.357C9.76656 217.981 8.84788 215.485 8.18322 212.916Z" fill="white"/>
<path d="M74.8329 151.358C72.6005 151.361 70.373 151.619 68.1783 152.129C65.9479 152.643 63.7346 153.22 61.5384 153.863C59.3423 154.505 57.1437 155.083 54.9427 155.597C52.7362 156.111 50.4961 156.369 48.2514 156.367C47.539 156.364 46.8294 156.257 46.1373 156.046C45.402 155.835 45.0564 155.083 45.0564 153.798C45.0939 152.821 45.4033 151.89 45.9314 151.165C46.1523 150.771 46.435 150.437 46.7623 150.183C47.0897 149.929 47.4549 149.761 47.8359 149.688L75.4358 144.675L75.7447 143.069C75.8853 142.323 76.0747 141.593 76.3108 140.886C76.5427 140.176 76.8738 139.524 77.2888 138.959C77.4667 138.699 77.6876 138.489 77.9363 138.345C78.185 138.201 78.4558 138.126 78.73 138.124C79.4354 138.076 80.1306 138.35 80.686 138.895C81.1584 139.401 81.5739 139.984 81.9213 140.629L82.8478 142.363C82.9508 142.592 83.0999 142.783 83.2805 142.919C83.461 143.054 83.6667 143.128 83.8772 143.133H84.7228C85.4091 143.051 86.5121 142.898 88.0317 142.675C89.5514 142.451 91.2842 142.216 93.2304 141.968C95.1912 141.711 97.2672 141.433 99.4585 141.133C101.65 140.834 103.744 140.577 105.742 140.363C107.729 140.152 109.48 139.938 110.992 139.721C112.504 139.503 113.607 139.311 114.301 139.143C114.507 139.143 115.007 139.143 115.797 139.078C116.588 139.014 117.15 139.014 117.496 139.014C117.496 140.641 116.792 141.99 115.385 143.06C113.711 144.269 111.907 145.178 110.029 145.757C107.662 146.533 105.254 147.092 102.823 147.432C100.18 147.817 97.6067 148.138 95.1017 148.395C92.5968 148.652 90.2977 148.866 88.2045 149.037C86.603 149.14 85.0073 149.354 83.425 149.679C83.157 156.02 83.28 162.376 83.7926 168.693C84.3074 175.289 84.9593 181.927 85.7486 188.606C86.5378 195.285 87.2731 201.922 87.9545 208.518C88.6214 214.78 88.9653 221.088 88.9839 227.404C89.2253 228.317 89.3494 229.272 89.3516 230.234C89.3593 230.51 89.3116 230.784 89.2127 231.03C89.1138 231.277 88.9669 231.489 88.7854 231.647C88.305 231.941 87.7716 232.074 87.2376 232.032C86.5537 232.032 85.7302 231.986 84.7669 231.904C83.9983 228.331 83.3968 224.706 82.9654 221.046C82.4507 216.893 81.9875 212.439 81.5757 207.684C81.1639 202.928 80.7693 198.025 80.3918 192.973C80.0144 187.924 79.6541 182.913 79.3109 177.941C78.9678 172.968 78.5903 168.216 78.1785 163.684C77.7668 159.142 77.2864 155.031 76.7373 151.349L74.8329 151.358Z" fill="white"/>
<path d="M159.949 184.075C158.408 185.252 156.814 186.34 155.173 187.334C152.896 188.763 150.477 190.305 147.916 191.958C145.356 193.611 142.915 195.192 140.593 196.7C138.275 198.219 136.662 199.346 135.755 200.082C134.076 201.442 132.785 203.311 132.034 205.465C131.359 207.569 131.023 209.789 131.042 212.022C131.049 214.478 131.256 216.929 131.662 219.343C132.079 221.877 132.375 224.435 132.548 227.004C132.544 228.306 132.151 229.571 131.431 230.598C131.114 231.114 130.687 231.534 130.189 231.823C129.69 232.112 129.136 232.26 128.574 232.254C128.009 232.231 127.458 232.062 126.961 231.761C126.696 231.644 126.469 231.44 126.311 231.176C126.153 230.911 126.071 230.6 126.075 230.282L123.205 141.826C123.256 141.054 123.446 140.302 123.763 139.613C124.135 138.696 124.445 138.188 124.693 138.094C125.047 138.109 125.4 138.155 125.747 138.232C126.237 138.341 126.715 138.507 127.174 138.725C127.67 138.957 128.149 139.189 128.601 139.416C128.939 139.567 129.255 139.777 129.535 140.037C129.863 143.718 130.07 147.952 130.156 152.741C130.241 157.529 130.345 162.362 130.466 167.24C130.59 172.12 130.796 176.838 131.086 181.393C131.282 185.28 131.801 189.139 132.636 192.919C136.181 191.276 139.53 189.711 142.684 188.226C145.592 186.903 148.344 185.188 150.876 183.119C153.16 181.233 155.032 178.798 156.351 175.995C157.677 173.192 158.298 169.672 158.212 165.435C158.212 163.135 158.171 161.108 158.088 159.357C158.008 157.623 157.842 155.894 157.592 154.18C157.344 152.481 156.992 150.641 156.537 148.659C156.083 146.677 155.524 144.4 154.863 141.826C154.694 140.165 154.947 139.11 155.607 138.647C156.318 138.172 157.135 137.933 157.964 137.956C158.854 137.89 159.735 138.184 160.445 138.785C161.063 139.394 161.551 140.148 161.876 140.993C162.25 141.93 162.481 142.93 162.558 143.951C162.638 145.011 162.722 145.997 162.806 146.909C162.972 148.385 163.178 150.593 163.426 153.535C163.674 156.476 163.943 159.814 164.233 163.547C164.528 167.274 164.859 171.208 165.225 175.349C165.591 179.49 165.943 183.403 166.279 187.087C166.607 190.768 166.876 194.082 167.086 197.031C167.289 199.988 167.476 202.187 167.644 203.656C167.892 207.156 168.223 210.607 168.636 214.009C169.053 217.486 169.261 220.991 169.257 224.5V226.708C169.258 227.426 169.196 228.143 169.07 228.848C168.944 229.533 168.635 230.16 168.184 230.647C167.566 231.243 166.817 231.648 166.014 231.82C164.537 230.621 163.669 229.285 163.409 227.812C163.149 226.34 162.942 224.73 162.788 222.981C162.706 221.969 162.623 220.427 162.54 218.357C162.458 216.286 162.31 213.986 162.097 211.455C161.888 208.928 161.681 206.259 161.477 203.449C161.273 200.639 161.068 197.979 160.861 195.468C160.657 192.934 160.471 190.655 160.303 188.63C160.135 186.606 160.017 185.087 159.949 184.075Z" fill="white"/>
<path d="M218.64 194.847C217.813 198.251 216.717 202.001 215.353 206.096C214.018 210.124 212.314 213.989 210.267 217.627C208.341 221.091 205.883 224.151 203.006 226.669C200.21 229.1 196.75 230.391 193.202 230.327C190.31 230.327 187.974 229.659 186.193 228.325C184.4 226.977 182.965 225.118 182.038 222.942C181.012 220.579 180.281 218.071 179.867 215.488C179.411 212.771 179.1 210.027 178.936 207.27C178.851 206.353 178.768 204.489 178.688 201.679C178.609 198.869 178.526 195.555 178.44 191.736C178.355 187.92 178.251 183.848 178.13 179.52C178.009 175.191 177.885 171.141 177.758 167.368C177.634 163.598 177.531 160.284 177.448 157.424C177.365 154.565 177.324 152.678 177.324 151.765C177.225 151.05 177.267 150.32 177.448 149.625C177.522 149.385 177.639 149.163 177.791 148.974C177.943 148.784 178.128 148.63 178.334 148.521C178.782 148.283 179.266 148.143 179.761 148.107C180.297 148.063 180.771 148.038 181.187 148.038H182.179C182.637 148.033 183.094 148.079 183.544 148.176C183.958 148.271 184.343 148.485 184.66 148.797C184.825 148.961 184.955 149.164 185.041 149.391C185.126 149.618 185.166 149.863 185.156 150.108V208.926C185.16 210.613 185.39 212.29 185.839 213.9C186.282 215.534 186.929 217.091 187.761 218.525C188.564 219.925 189.62 221.124 190.863 222.044C192.112 222.968 193.584 223.45 195.085 223.425C198.227 223.149 200.935 221.285 203.21 217.834C205.484 214.384 207.448 210.034 209.102 204.785C210.84 199.197 212.21 193.474 213.2 187.664C214.272 181.498 215.223 175.561 216.053 169.852C216.883 164.144 217.606 159.081 218.224 154.664C218.844 150.246 219.526 147.164 220.27 145.415C221.844 143.848 223.085 143.456 223.992 144.242C224.992 145.174 225.708 146.428 226.043 147.831C226.51 149.534 226.78 151.297 226.849 153.076C226.929 154.964 226.849 156.32 226.601 157.148C226.601 163.32 226.332 169.442 225.795 175.512C225.257 181.582 224.987 187.749 224.984 194.013C224.984 197.957 225.151 201.916 225.485 205.889C225.818 209.863 226.191 213.822 226.601 217.765C227.012 221.709 227.384 225.643 227.717 229.567C228.051 233.492 228.212 237.381 228.2 241.236C228.197 241.997 228.156 242.758 228.076 243.514C228.003 244.258 227.814 244.982 227.518 245.653C227.232 246.291 226.831 246.857 226.34 247.315C225.73 247.814 224.982 248.058 224.226 248.005C223.935 247.93 223.639 247.883 223.34 247.867L218.64 194.847Z" fill="white"/>
<path d="M236.755 226.462C236.593 214.775 236.407 204.765 236.197 196.434C235.987 188.103 235.801 181.083 235.639 175.374C235.473 169.668 235.287 165.136 235.08 161.777C234.874 158.418 234.726 155.725 234.637 153.697C234.555 151.676 234.472 150.227 234.389 149.349C234.307 148.501 234.266 147.649 234.265 146.796C234.265 145.234 234.679 144.248 235.506 143.838C236.489 143.391 237.545 143.179 238.607 143.217C240.016 143.217 241.11 143.512 241.899 144.114C242.687 144.715 243.077 146.253 243.077 148.738L245.434 223.021C245.514 223.021 245.93 222.932 246.674 222.745C247.555 222.519 248.424 222.243 249.279 221.916C250.272 221.551 251.304 221.157 252.38 220.743C253.27 220.415 254.141 220.023 254.985 219.57C255.978 219.113 257.468 218.377 259.455 217.361C261.443 216.346 263.676 215.195 266.154 213.91C268.635 212.619 271.262 211.26 274.035 209.833C276.809 208.407 279.455 207.073 281.974 205.83C284.496 204.588 286.729 203.438 288.673 202.379C290.617 201.324 292.088 200.56 293.103 200.102H294.591C295.09 200.101 295.588 200.147 296.08 200.24C296.549 200.316 296.984 200.558 297.32 200.93C297.685 201.391 297.903 201.973 297.941 202.586C297.959 203.396 297.807 204.2 297.498 204.933C297.145 205.695 296.751 206.432 296.319 207.142C291.326 208.199 286.498 210.06 281.987 212.668C277.315 215.333 272.682 218.094 268.09 220.95C263.584 223.758 258.944 226.292 254.192 228.542C249.667 230.72 244.791 231.849 239.861 231.86C237.79 231.853 236.755 230.054 236.755 226.462Z" fill="white"/>
<path d="M339.372 184.075C337.83 185.252 336.234 186.34 334.592 187.334C332.317 188.763 329.899 190.305 327.335 191.958C324.771 193.611 322.33 195.192 320.012 196.7C317.693 198.219 316.081 199.346 315.174 200.082C313.495 201.442 312.203 203.311 311.453 205.465C310.778 207.569 310.442 209.789 310.46 212.022C310.468 214.478 310.675 216.929 311.081 219.343C311.498 221.877 311.794 224.435 311.967 227.004C311.963 228.306 311.57 229.571 310.85 230.598C310.533 231.113 310.107 231.533 309.609 231.822C309.112 232.111 308.558 232.259 307.997 232.254C307.433 232.231 306.88 232.062 306.385 231.761C306.119 231.645 305.891 231.441 305.733 231.177C305.574 230.912 305.492 230.6 305.498 230.282L302.628 141.826C302.68 141.055 302.869 140.302 303.186 139.613C303.558 138.696 303.868 138.188 304.116 138.094C304.47 138.109 304.823 138.155 305.171 138.232C305.662 138.341 306.141 138.507 306.602 138.725C307.098 138.957 307.572 139.189 308.028 139.416C308.365 139.568 308.679 139.778 308.958 140.037C309.286 143.718 309.493 147.952 309.579 152.741C309.664 157.529 309.768 162.362 309.889 167.24C310.013 172.12 310.22 176.838 310.509 181.393C310.705 185.28 311.224 189.139 312.06 192.919C315.604 191.276 318.953 189.711 322.107 188.226C325.016 186.903 327.767 185.188 330.299 183.119C332.584 181.236 334.454 178.8 335.77 175.995C337.096 173.192 337.716 169.672 337.631 165.435C337.631 163.135 337.591 161.109 337.511 159.357C337.427 157.623 337.26 155.895 337.011 154.18C336.762 152.481 336.411 150.641 335.956 148.659C335.501 146.677 334.943 144.4 334.282 141.826C334.118 140.165 334.366 139.11 335.026 138.647C335.738 138.172 336.557 137.933 337.387 137.956C338.277 137.892 339.157 138.186 339.868 138.785C340.483 139.396 340.97 140.15 341.295 140.993C341.669 141.93 341.9 142.93 341.977 143.951C342.057 145.011 342.141 145.997 342.225 146.909C342.387 148.385 342.594 150.593 342.845 153.535C343.096 156.476 343.365 159.814 343.651 163.547C343.947 167.274 344.278 171.208 344.644 175.349C345.01 179.49 345.361 183.403 345.698 187.087C346.026 190.768 346.295 194.083 346.504 197.031C346.708 199.988 346.894 202.187 347.063 203.656C347.311 207.156 347.642 210.607 348.055 214.009C348.472 217.486 348.679 220.991 348.675 224.5V226.708C348.677 227.426 348.615 228.143 348.489 228.848C348.363 229.533 348.054 230.16 347.603 230.647C346.985 231.243 346.236 231.648 345.432 231.82C343.956 230.621 343.087 229.285 342.827 227.812C342.567 226.34 342.361 224.73 342.207 222.981C342.124 221.969 342.042 220.428 341.959 218.357C341.876 216.286 341.729 213.986 341.516 211.455C341.306 208.928 341.1 206.259 340.896 203.449C340.692 200.639 340.488 197.979 340.284 195.468C340.078 192.934 339.892 190.655 339.726 188.63C339.561 186.606 339.443 185.087 339.372 184.075Z" fill="white"/>
<path d="M398.059 194.847C397.232 198.251 396.136 202.001 394.772 206.096C393.437 210.124 391.733 213.989 389.686 217.627C387.76 221.091 385.302 224.151 382.425 226.669C379.63 229.099 376.171 230.39 372.625 230.327C369.728 230.327 367.39 229.659 365.612 228.325C363.82 226.975 362.385 225.117 361.456 222.942C360.43 220.579 359.7 218.071 359.286 215.488C358.829 212.771 358.519 210.027 358.355 207.27C358.273 206.353 358.19 204.489 358.107 201.679C358.024 198.869 357.942 195.555 357.859 191.736C357.776 187.92 357.673 183.848 357.549 179.52C357.425 175.191 357.301 171.141 357.177 167.368C357.053 163.598 356.949 160.284 356.867 157.424C356.784 154.565 356.743 152.678 356.743 151.765C356.643 151.05 356.686 150.32 356.867 149.625C356.941 149.385 357.058 149.163 357.21 148.974C357.362 148.784 357.547 148.63 357.753 148.521C358.2 148.283 358.684 148.143 359.179 148.107C359.715 148.063 360.189 148.038 360.606 148.038H361.598C362.056 148.033 362.513 148.079 362.963 148.176C363.377 148.271 363.762 148.485 364.079 148.797C364.244 148.961 364.375 149.163 364.461 149.39C364.546 149.617 364.586 149.862 364.575 150.108V208.926C364.578 210.613 364.808 212.289 365.258 213.9C365.702 215.534 366.349 217.09 367.18 218.525C367.983 219.925 369.039 221.124 370.281 222.044C371.53 222.968 373 223.45 374.499 223.425C377.638 223.149 380.347 221.285 382.624 217.834C384.901 214.384 386.867 210.034 388.521 204.785C390.255 199.196 391.624 193.474 392.614 187.664C393.686 181.498 394.637 175.561 395.467 169.852C396.297 164.144 397.021 159.081 397.638 154.664C398.258 150.246 398.94 147.164 399.685 145.415C401.259 143.848 402.501 143.456 403.41 144.242C404.408 145.176 405.122 146.429 405.457 147.831C405.924 149.534 406.195 151.297 406.263 153.076C406.343 154.964 406.263 156.32 406.015 157.148C406.015 163.32 405.747 169.442 405.209 175.512C404.672 181.582 404.403 187.749 404.403 194.013C404.403 197.957 404.568 201.916 404.899 205.889C405.23 209.863 405.602 213.822 406.015 217.765C406.426 221.709 406.798 225.643 407.132 229.567C407.466 233.492 407.629 237.381 407.624 241.236C407.621 241.997 407.579 242.758 407.499 243.514C407.426 244.258 407.237 244.982 406.941 245.653C406.655 246.291 406.254 246.857 405.763 247.315C405.155 247.813 404.408 248.058 403.654 248.005C403.363 247.93 403.066 247.884 402.768 247.867L398.059 194.847Z" fill="white"/>
<path d="M500.487 159.664C502.037 163.672 503.217 169.99 500.84 179.198C498.939 186.564 498.673 188.713 494.958 194.789C492.856 198.228 490.315 203.446 482.576 210.812C479.397 213.838 473.908 216.337 470.812 218.178C470.576 218.319 470.44 218.493 470.361 218.553C470.282 218.614 470.223 218.701 470.193 218.802C470.162 218.903 470.162 219.013 470.192 219.114C470.222 219.215 470.281 219.303 470.36 219.363L470.426 219.418C479.508 226.556 492.863 223.614 494.484 223.15C511.837 218.22 518.465 196.475 518.952 194.789C521.016 187.675 521.61 178.373 521.783 176.159C522.089 171.55 522.27 168.814 521.894 165.023C521.087 156.859 518.766 154.616 516.918 145.53C516.053 141.274 515.572 136.932 515.483 132.57C515.417 127.457 515.483 121.188 520.343 114.743" stroke="white" stroke-width="5" stroke-miterlimit="10" stroke-linecap="round"/>
<path d="M518.863 195.262C520.391 200.107 521.218 205.19 521.313 210.323C521.43 218.523 519.715 226.627 516.32 233.907C516.285 233.986 516.269 234.074 516.275 234.163C516.281 234.251 516.308 234.335 516.353 234.408C516.398 234.481 516.46 234.538 516.533 234.575C516.605 234.612 516.684 234.626 516.763 234.617L517.206 234.533C527.121 232.561 534.108 221.75 536.925 213.971C539.464 206.98 539.57 197.813 537.989 183.802C532.67 167.97 533.345 175.208 530.559 160.475" stroke="white" stroke-width="5" stroke-miterlimit="10" stroke-linecap="round"/>
<path d="M500.487 159.664C500.088 156.928 496.33 146.189 495.887 141.752" stroke="white" stroke-width="5" stroke-miterlimit="10" stroke-linecap="round"/>
<path d="M537.989 183.802C541.318 186.914 543.835 188.36 547.669 190.643C556.817 196.066 560.884 195.208 569.82 200.621C575.211 203.88 579.748 206.616 583.053 212.231C587.846 220.375 586.105 230.397 585.232 235.11C585.221 235.202 585.232 235.296 585.267 235.381C585.301 235.465 585.356 235.538 585.425 235.589C585.495 235.641 585.576 235.669 585.659 235.672C585.743 235.674 585.825 235.65 585.897 235.603L587.066 234.799C595.041 229.298 597.074 214.434 594.988 203.584C593.029 193.418 587.492 186.886 585.542 184.643C578.671 176.756 574.307 178.151 563.258 167.463C557.118 161.522 554.872 157.603 553.924 155.819C553.251 154.542 550.898 149.903 549.117 139.141C547.54 129.562 544.944 113.826 550.003 98.2235C550.889 95.4628 551.895 93.1605 552.94 88.6596C553.512 86.1947 555.2 78.7704 554.863 70.6608C554.699 66.6578 554.141 53.0712 544.798 41.7079C542.512 38.9275 534.249 28.8904 520.932 28.3678C507.026 27.8354 497.895 38.1091 495.596 40.6924C487.941 49.3048 484.046 61.3385 484.52 71.6566C484.715 76.0245 485.752 81.5804 487.799 92.5492C489.212 100.126 489.447 100.062 489.753 103.134C490.537 111.021 489.584 117.174 488.251 125.441C487.196 131.993 486.642 135.424 485.309 139.876C483.484 145.979 479.993 157.717 471.624 165.175C462.321 173.477 457.133 167.458 445.929 175.622C435.961 182.898 431.628 193.808 430.095 198.531C428.607 203.106 424.194 218.945 431.114 232.389C431.42 232.99 431.721 233.528 432 234.001C432.053 234.087 432.128 234.153 432.216 234.189C432.304 234.225 432.399 234.229 432.49 234.201C432.58 234.172 432.659 234.113 432.717 234.031C432.775 233.949 432.808 233.849 432.811 233.744C432.864 230.683 433.179 223.663 434.898 218.038C436.543 212.603 439.159 207.594 442.589 203.313C449.54 194.774 458.094 192.156 463.854 190.347C464.23 190.229 466.166 189.741 468.146 189.233C473.631 187.813 475.08 187.488 476.121 187.202C480.964 185.825 485.519 183.41 489.531 180.093C491.715 178.23 495.144 175.242 497.789 169.898C499.951 165.53 500.221 162.242 500.487 159.684" stroke="white" stroke-width="5" stroke-miterlimit="10" stroke-linecap="round"/>
<path d="M526.519 81.0972C526.488 83.0051 529.917 84.5974 532.101 85.2087C532.987 85.4601 538.378 86.9736 540.921 83.5326C543.956 79.4211 540.744 71.208 538.582 71.0305C538.192 70.996 537.9 71.2376 537.452 71.6172C534.055 74.4962 532.358 75.9357 531.277 76.9315C527.963 79.9732 526.536 79.8697 526.519 81.0972Z" stroke="white" stroke-width="5" stroke-miterlimit="10" stroke-linecap="round"/>
<path d="M512.2 81.0972C512.231 83.0051 508.802 84.5974 506.623 85.2087C505.737 85.4601 500.341 86.9736 497.798 83.5326C494.763 79.4211 497.975 71.208 500.137 71.0305C500.527 70.996 500.819 71.2376 501.267 71.6172C504.665 74.4962 506.361 75.9357 507.442 76.9315C510.756 79.9732 512.183 79.8697 512.2 81.0972Z" stroke="white" stroke-width="5" stroke-miterlimit="10" stroke-linecap="round"/>
<path d="M487.316 124.879C484.13 126.588 480.759 127.829 477.286 128.571C471.094 129.774 464.749 129.59 458.621 128.029C456.694 127.536 456.805 127.433 456.021 127.354C450.873 126.861 443.67 136.099 440.87 140.004C440.805 140.09 440.77 140.199 440.768 140.311C440.767 140.423 440.8 140.532 440.862 140.621C440.924 140.709 441.011 140.771 441.109 140.797C441.207 140.823 441.31 140.811 441.401 140.763C443.413 139.728 446.828 138.234 449.535 138.347C454.727 138.569 457.824 141.941 461.904 144.515C466.117 147.172 472.661 149.785 482.677 149.129" stroke="white" stroke-width="5" stroke-miterlimit="10"/>
<path d="M547.15 114.566C547.15 118.697 547.863 123.193 553.946 128.468C555.962 130.213 557.88 130.82 561.225 131.825C570.528 134.615 574.108 132.481 578.87 134.551C581.941 135.882 585.768 139.077 588.856 147.369C588.891 147.464 588.899 147.569 588.878 147.669C588.857 147.769 588.809 147.859 588.739 147.927C588.67 147.995 588.583 148.037 588.492 148.047C588.4 148.058 588.307 148.036 588.227 147.985C587.695 147.64 587.075 147.275 586.375 146.91C583.068 145.259 579.478 144.43 575.853 144.48C571.056 144.584 569.487 146.339 564.805 147.67C561.384 148.656 556.285 149.385 549.463 147.921" stroke="white" stroke-width="5" stroke-miterlimit="10"/>
<path d="M484.777 74.5061C476.422 68.6544 466.113 68.7677 459.029 74.6786C450.886 81.467 456.734 107.93 455.808 110.543C455.775 110.634 455.718 110.711 455.645 110.765C455.572 110.82 455.486 110.849 455.398 110.849C455.311 110.849 455.225 110.82 455.152 110.765C455.079 110.711 455.022 110.634 454.989 110.543L452.091 100.442C448.383 93.2345 432.155 95.0191 429.976 96.1924L426.622 110.583C426.616 110.713 426.564 110.836 426.477 110.924C426.389 111.012 426.274 111.057 426.157 111.051C426.039 111.044 425.929 110.986 425.85 110.889C425.771 110.792 425.73 110.664 425.736 110.533C424.438 101.571 428.239 76.1773 430.051 68.3487L430.166 67.8557C430.822 65.0654 434.025 52.1542 441.135 39.7557C445.344 32.43 449.11 28.5255 453.859 27.3621C454.156 27.2882 454.43 27.2339 454.683 27.1896C454.812 27.1683 454.944 27.1792 455.069 27.2214C455.194 27.2635 455.31 27.336 455.407 27.4335C455.504 27.5311 455.58 27.6513 455.63 27.7855C455.68 27.9198 455.704 28.0647 455.698 28.21C455.532 31.2988 455.849 34.396 456.632 37.3647C457.929 42.2254 460.425 46.584 463.836 49.9456C467.627 53.6208 472.312 55.964 477.299 56.6798C480.438 57.2016 483.634 57.1233 486.749 56.4481" stroke="white" stroke-width="5" stroke-miterlimit="10"/>
<path d="M455.937 35.3238C453.84 39.195 452.17 43.3329 450.962 47.6483C448.401 56.8129 448.627 64.3555 448.866 70.6854C449.079 76.2167 451.028 89.2019 453.447 98.1199" stroke="white" stroke-width="5" stroke-miterlimit="10"/>
<path d="M466.051 52.9874C465.094 56.3042 464.536 59.747 464.39 63.2266C464.115 70.0742 465.546 75.3441 466.427 78.5091C467.14 81.0469 468.029 83.5192 469.086 85.9038" stroke="white" stroke-width="5" stroke-miterlimit="10" stroke-linecap="round"/>
<path d="M553.857 76.6752C562.208 70.8235 572.518 70.9369 579.606 76.8477C587.744 83.6361 581.901 110.099 582.822 112.707C582.853 112.799 582.908 112.878 582.98 112.935C583.051 112.991 583.137 113.023 583.225 113.026C583.312 113.028 583.399 113.002 583.473 112.949C583.548 112.897 583.606 112.821 583.642 112.732L586.539 102.631C590.252 95.4233 606.475 97.2079 608.655 98.3812L611.991 112.766C612.017 112.875 612.077 112.969 612.158 113.035C612.24 113.101 612.34 113.133 612.44 113.128C612.541 113.122 612.637 113.078 612.712 113.003C612.788 112.929 612.838 112.828 612.855 112.717C614.157 103.75 610.351 78.3612 608.54 70.5326C608.473 70.2418 608.442 70.0988 608.429 70.0396C607.773 67.2444 604.566 54.3381 597.455 41.9396C593.246 34.6139 589.481 30.7095 584.732 29.5411C584.439 29.4721 584.165 29.4129 583.908 29.3685C583.778 29.3472 583.646 29.3582 583.52 29.4006C583.395 29.4431 583.279 29.516 583.182 29.6141C583.085 29.7122 583.009 29.833 582.959 29.9679C582.909 30.1027 582.886 30.2482 582.893 30.394C583.063 33.4974 582.746 36.6101 581.958 39.593C580.659 44.4312 578.172 48.7697 574.777 52.1197C570.978 55.7847 566.288 58.1159 561.3 58.8193C558.16 59.3411 554.963 59.2627 551.846 58.5876" stroke="white" stroke-width="5" stroke-miterlimit="10"/>
<path d="M582.694 37.4929C584.79 41.3648 586.462 45.5026 587.673 49.8175C590.234 58.982 590.004 66.5247 589.764 72.8496C589.556 78.3809 587.607 91.371 585.183 100.289" stroke="white" stroke-width="5" stroke-miterlimit="10"/>
<path d="M572.593 55.1565C573.55 58.4712 574.107 61.9128 574.25 65.3908C574.524 72.2433 573.093 77.5133 572.212 80.6733C571.498 83.2106 570.609 85.6829 569.554 88.068" stroke="white" stroke-width="5" stroke-miterlimit="10" stroke-linecap="round"/>
</g>
<defs>
<clipPath id="clip0_19_258">
<rect width="616" height="248" fill="white"/>
</clipPath>
</defs>
</svg>
