<svg width="246" height="245" viewBox="0 0 246 245" fill="none" xmlns="http://www.w3.org/2000/svg">
<path fill-rule="evenodd" clip-rule="evenodd" d="M235.58 171.241C236.561 168.998 237.477 166.717 238.326 164.4L81.131 7.2057C78.8069 8.03997 76.5127 8.94268 74.2512 9.9117L235.58 171.241ZM73.2647 10.3395C71.2925 11.205 69.3457 12.1212 67.4261 13.0866L232.361 178.021C233.338 176.118 234.267 174.185 235.146 172.221L73.2647 10.3395ZM60.9368 16.5973C62.7595 15.5395 64.6106 14.5277 66.4884 13.5632L231.878 178.952C230.898 180.82 229.872 182.657 228.802 184.462L60.9368 16.5973ZM60.045 17.1198C58.2566 18.1777 56.4962 19.2802 54.7653 20.4259L224.922 190.582C226.081 188.869 227.198 187.124 228.272 185.347L60.045 17.1198ZM48.8987 24.5593C50.5412 23.329 52.2147 22.1395 53.9174 20.9922L224.348 191.423C223.183 193.112 221.978 194.77 220.734 196.394L48.8987 24.5593ZM48.0931 25.1679C46.4735 26.4018 44.8845 27.6758 43.328 28.9885L216.248 201.908C217.575 200.37 218.865 198.798 220.117 197.192L48.0931 25.1679ZM42.5637 29.6384L215.59 202.664C214.253 204.188 212.879 205.677 211.47 207.13L38.0476 33.7081C39.5196 32.3142 41.0255 30.9572 42.5637 29.6384ZM210.771 207.846L37.3241 34.3989C35.8667 35.8017 34.4433 37.2411 33.0555 38.716L206.404 212.064C207.893 210.695 209.35 209.288 210.771 207.846ZM32.3727 39.4475L205.664 212.739C204.334 213.942 202.978 215.115 201.598 216.258L28.8096 43.4701C29.9685 42.1023 31.1566 40.7611 32.3727 39.4475ZM232.518 67.179C220.86 44.3118 202.125 25.3222 178.768 13.4285L232.518 67.179ZM175.977 12.0517C171.356 9.84477 166.563 7.91198 161.617 6.27718L239.679 84.3395C238.054 79.4174 236.12 74.62 233.899 69.9733L175.977 12.0517ZM147.955 2.6159C151.897 3.43433 155.759 4.43568 159.535 5.60962L240.345 86.4199C241.52 90.2054 242.513 94.0616 243.316 97.9769L147.955 2.6159ZM146.187 2.26206C143.988 1.83833 141.764 1.4714 139.518 1.16301C138.37 1.00537 137.223 0.86405 136.078 0.738869L245.137 109.797C244.785 106.408 244.293 103.053 243.664 99.7389L146.187 2.26206ZM125.371 0.031978C128.398 0.10083 131.443 0.281219 134.502 0.576562L245.289 111.363C245.56 114.361 245.721 117.384 245.767 120.428L125.371 0.031978ZM123.933 0.00762436C121.118 -0.0236535 118.319 0.0414532 115.54 0.200181L245.525 130.186C245.706 127.395 245.791 124.617 245.781 121.855L123.933 0.00762436ZM106.405 1.06559C108.986 0.723189 111.588 0.461698 114.209 0.283451L245.432 131.507C245.244 133.99 244.98 136.482 244.637 138.981L244.607 139.193L244.598 139.259L106.405 1.06559ZM105.162 1.23697C102.704 1.58877 100.266 2.01405 97.8502 2.51075L243.106 147.766C243.613 145.371 244.052 142.946 244.419 140.494L105.162 1.23697ZM89.7934 4.45391C92.0666 3.82353 94.3636 3.25725 96.6822 2.75688L242.854 148.928C242.34 151.242 241.762 153.527 241.122 155.783L89.7934 4.45391ZM88.6906 4.76529C86.4954 5.39619 84.323 6.08699 82.1755 6.83605L238.701 163.362C239.46 161.231 240.162 159.07 240.805 156.88L88.6906 4.76529ZM28.1638 44.2385L200.821 216.896C199.239 218.184 197.625 219.433 195.981 220.641L24.3699 49.0304C25.5957 47.3998 26.8609 45.8021 28.1638 44.2385ZM23.766 49.8407L195.163 221.237C193.494 222.443 191.795 223.606 190.067 224.728L20.2295 54.89C21.3672 53.1746 22.5466 51.4911 23.766 49.8407ZM19.6687 55.7434C18.5355 57.4836 17.445 59.256 16.3988 61.0593L183.847 228.507C185.661 227.477 187.448 226.401 189.206 225.281L19.6687 55.7434ZM15.8828 61.9575L182.941 229.016C181.09 230.047 179.211 231.031 177.306 231.966L12.8919 67.5524C13.8421 65.6569 14.8396 63.7915 15.8828 61.9575ZM12.4231 68.4978C11.475 70.431 10.576 72.3949 9.72775 74.3883L170.426 235.087C172.428 234.252 174.404 233.365 176.354 232.429L12.4231 68.4978ZM9.30928 75.384L169.424 235.499C167.369 236.335 165.287 237.117 163.182 237.842L6.93103 81.5915C7.66953 79.4931 8.46291 77.4234 9.30928 75.384ZM6.5669 82.6416C5.83075 84.7964 5.15229 86.9811 4.53353 89.194L155.54 240.201C157.759 239.595 159.955 238.927 162.126 238.201L6.5669 82.6416ZM4.22894 90.3037L154.425 240.5C151.852 241.177 149.25 241.772 146.622 242.282L2.407 98.0675C2.93309 95.4441 3.54143 92.8554 4.22894 90.3037ZM2.1758 99.2505L145.433 242.507C142.971 242.961 140.486 243.34 137.982 243.643L0.997696 106.658C1.045 106.289 1.09402 105.92 1.14475 105.55C1.4359 103.43 1.78008 101.329 2.1758 99.2505ZM128.747 244.408C131.422 244.287 134.079 244.081 136.715 243.789L0.842873 107.918C0.531188 110.565 0.307291 113.203 0.168932 115.829L128.747 244.408ZM0.105267 117.18L127.386 244.461C124.54 244.557 121.673 244.555 118.792 244.452L0.049295 125.71C-0.031365 122.884 -0.0136801 120.039 0.105267 117.18ZM107.925 243.585C111.069 243.975 114.201 244.242 117.316 244.39L0.0999707 127.175C0.227385 130.309 0.475747 133.42 0.841047 136.502L107.925 243.585ZM1.0438 138.119L106.299 243.373L106.263 243.368C102.725 242.883 99.2428 242.252 95.8215 241.482L2.89256 148.553C2.12761 145.12 1.50935 141.639 1.0438 138.119ZM81.7775 237.438C85.7448 238.84 89.8148 240.049 93.9779 241.053L3.31738 150.392C4.30745 154.531 5.51119 158.597 6.91787 162.578L81.7775 237.438ZM7.72843 164.803C9.78503 170.282 12.2285 175.59 15.03 180.691L63.6797 229.34C68.7476 232.121 74.0475 234.561 79.5528 236.628L7.72843 164.803ZM60.3995 227.474L16.9007 183.975C27.3926 201.757 42.3198 216.817 60.3995 227.474Z" fill="url(#paint0_linear_15_57)"/>
<defs>
<linearGradient id="paint0_linear_15_57" x1="1.14474" y1="105.55" x2="244.637" y2="138.981" gradientUnits="userSpaceOnUse">
<stop stop-color="#FF6666"/>
<stop offset="0.489619" stop-color="#FF9F68"/>
<stop offset="1" stop-color="#68A5FF"/>
</linearGradient>
</defs>
</svg>
