<svg xmlns="http://www.w3.org/2000/svg" viewBox="0 0 127.41 66.16"><defs><style>.cls-1{fill:#3f3f3f;}.cls-2{isolation:isolate;}</style></defs><g id="Слой_2" data-name="Слой 2"><g id="Слой_1-2" data-name="Слой 1"><g id="Слой_2-2" data-name="Слой 2"><g id="Слой_2-2-2" data-name="Слой 2-2"><path class="cls-1" d="M26.63,50.34c-5.38-2.22-8.4-7.19-7.62-11.53.51-2.83,2.75-6.16,5.62-6.81,1.35-.31,1.88.2,4.77-.09,2.39-.23,3.59-.35,4.42-1,2.09-1.67.65-4.41,2.9-6.55a7,7,0,0,1,3.91-1.62c2-.35,3,.22,5.7.6a30.16,30.16,0,0,0,5.62.25L101,9.7a11,11,0,0,1,2.21-.94c1.24-.36,4-1.2,6.47.26a6.32,6.32,0,0,1,2.47,2.89L116,12l.34-3.32-4.08-5.45-1.36-.76c-.41.23-.84.46-1.28.68A33,33,0,0,1,99.52,6.3a1.64,1.64,0,0,1-.25,1.36,1.54,1.54,0,0,1-.77.51L51.84,21.23a2.51,2.51,0,0,1-2-.32,2.91,2.91,0,0,1-.44-3.76c0-1.92.08-3.83.13-5.75a3.61,3.61,0,0,0-.64-1.15c-1.72-2-5.5-1.17-7.09-.83-5.73,1.23-9.53,6-11,8.17A11.38,11.38,0,0,1,29,18.1C23.69,19.18,20.44,16,15.72,15c-3.64-.76-9.11-.42-12.39,2.55-5.71,5.18-2.43,16.18-2,17.68C4.55,46,14.07,51.45,18.65,52.19c1.48.24,5,.8,7.34-1.21A7.73,7.73,0,0,0,26.63,50.34Z"/><circle class="cls-1" cx="100.33" cy="4.07" r="1.7"/><circle class="cls-1" cx="104.22" cy="2.89" r="1.7"/><circle class="cls-1" cx="108.18" cy="1.7" r="1.7"/><g class="cls-2"><path class="cls-1" d="M35.19,48.33a6.58,6.58,0,0,1-7-7.12A7.06,7.06,0,0,1,30,36a7.14,7.14,0,0,1,5.28-1.88,16.1,16.1,0,0,1,2.72.23,1.22,1.22,0,0,1,.75.44,1.37,1.37,0,0,1,.29.85v.51a.8.8,0,0,1-.32.65.82.82,0,0,1-.72.15,10.49,10.49,0,0,0-2.34-.26q-4.26,0-4.26,4.56a5,5,0,0,0,1,3.41,3.71,3.71,0,0,0,2.92,1.14,4.91,4.91,0,0,0,1.19-.15.19.19,0,0,0,.17-.21V42.31c0-.1-.05-.16-.17-.16H34.8a1,1,0,0,1-.75-.32,1,1,0,0,1-.33-.76v-.28a1,1,0,0,1,.33-.76,1,1,0,0,1,.75-.33h3.94a1,1,0,0,1,.75.33,1,1,0,0,1,.31.76v5.68a1.44,1.44,0,0,1-.28.88,1.33,1.33,0,0,1-.74.52A13.64,13.64,0,0,1,35.19,48.33Z"/><path class="cls-1" d="M48.68,48.33q-5.32,0-5.32-5.23V35.35a1,1,0,0,1,.32-.76,1.05,1.05,0,0,1,.76-.32h1.1a1.07,1.07,0,0,1,.76.32,1,1,0,0,1,.32.76v8a2.77,2.77,0,0,0,.5,1.85,2.59,2.59,0,0,0,3.19,0,2.77,2.77,0,0,0,.49-1.85v-8a1.11,1.11,0,0,1,1.09-1.08h1a1.05,1.05,0,0,1,.76.32,1,1,0,0,1,.33.76V43.1C54,46.59,52.22,48.33,48.68,48.33Z"/><path class="cls-1" d="M59,48.14a1,1,0,0,1-.75-.32,1.06,1.06,0,0,1-.31-.76V35.35a1.06,1.06,0,0,1,.31-.76,1,1,0,0,1,.75-.32H60.4a1,1,0,0,1,.75.32,1.06,1.06,0,0,1,.31.76V47.06a1.06,1.06,0,0,1-.31.76,1,1,0,0,1-.75.32Z"/><path class="cls-1" d="M66.19,37a1.09,1.09,0,0,1-1.08-1.08v-.52a1.09,1.09,0,0,1,1.08-1.08h8.48a1.09,1.09,0,0,1,1.08,1.08v.52A1.09,1.09,0,0,1,74.67,37H72.23a.13.13,0,0,0-.15.15v10A1.09,1.09,0,0,1,71,48.14H69.86a1.05,1.05,0,0,1-.76-.32,1,1,0,0,1-.32-.76v-10c0-.1,0-.15-.16-.15Z"/><path class="cls-1" d="M79,48.14a.76.76,0,0,1-.64-.32.72.72,0,0,1-.1-.71L82.08,35.3a1.44,1.44,0,0,1,.54-.74,1.37,1.37,0,0,1,.86-.29h1.26a1.44,1.44,0,0,1,.89.29,1.32,1.32,0,0,1,.53.74L90,47.11a.75.75,0,0,1-.1.71.76.76,0,0,1-.64.32H88a1.34,1.34,0,0,1-.86-.3,1.28,1.28,0,0,1-.49-.75l-.46-1.8c0-.1-.07-.15-.19-.15h-3.8a.18.18,0,0,0-.19.15l-.45,1.8a1.43,1.43,0,0,1-1.35,1Zm5.07-11.06-1.38,5.45a.09.09,0,0,0,0,.11.18.18,0,0,0,.11,0h2.54a.16.16,0,0,0,.11,0,.11.11,0,0,0,0-.11l-1.39-5.45,0,0Z"/><path class="cls-1" d="M93.76,48.14a1.09,1.09,0,0,1-1.08-1.08V35.45a1.18,1.18,0,0,1,1.08-1.2c1.13-.11,2.29-.17,3.48-.17a7,7,0,0,1,4.24,1.07,3.61,3.61,0,0,1,1.4,3.05,3.82,3.82,0,0,1-.74,2.29A4.1,4.1,0,0,1,100.2,42h0a0,0,0,0,0,0,0,4.16,4.16,0,0,1,1.58,2.25l1.08,2.88a.72.72,0,0,1-.09.69.74.74,0,0,1-.61.32H101a1.48,1.48,0,0,1-.89-.29,1.43,1.43,0,0,1-.56-.74l-.94-2.73A2.29,2.29,0,0,0,98,43.29,2,2,0,0,0,96.8,43H96c-.1,0-.15.06-.15.17v3.88a1.09,1.09,0,0,1-1.08,1.08Zm2.09-11.32v3.64c0,.12.05.17.15.17h.92a3.17,3.17,0,0,0,2-.56,1.87,1.87,0,0,0,.7-1.56c0-1.32-.87-2-2.6-2a6.16,6.16,0,0,0-1,.08A.19.19,0,0,0,95.85,36.82Z"/></g><g class="cls-2"><path class="cls-1" d="M49,59.45q-3.93-1.32-3.93-4.16a3.15,3.15,0,0,1,1-2.49A4.27,4.27,0,0,1,49,51.91a9.54,9.54,0,0,1,3.17.51,1.07,1.07,0,0,1,.5.39,1.13,1.13,0,0,1,.19.62.4.4,0,0,1-.21.37.49.49,0,0,1-.44,0,7.5,7.5,0,0,0-3.1-.69,2.91,2.91,0,0,0-1.83.54,1.9,1.9,0,0,0-.69,1.61q0,1.86,2.49,2.7a7.91,7.91,0,0,1,3.3,1.79,3.58,3.58,0,0,1,.95,2.58,3.53,3.53,0,0,1-1.12,2.83,4.88,4.88,0,0,1-3.29,1A7.15,7.15,0,0,1,46,65.57a1.08,1.08,0,0,1-.66-1.06.36.36,0,0,1,.2-.36.4.4,0,0,1,.42,0,5.71,5.71,0,0,0,2.87.74c2,0,3-.85,3-2.53a2.4,2.4,0,0,0-.64-1.71A5.23,5.23,0,0,0,49,59.45Z"/><path class="cls-1" d="M63.55,66.16a5.54,5.54,0,0,1-4.38-1.87A7.64,7.64,0,0,1,57.51,59a7.88,7.88,0,0,1,1.59-5.25,5.45,5.45,0,0,1,4.4-1.88,11.08,11.08,0,0,1,2.64.28.84.84,0,0,1,.46.33.92.92,0,0,1,.19.55.47.47,0,0,1-.2.39.48.48,0,0,1-.45.06,8.86,8.86,0,0,0-2.51-.34,4.06,4.06,0,0,0-3.36,1.54A6.83,6.83,0,0,0,59.05,59a6.58,6.58,0,0,0,1.27,4.3,4.13,4.13,0,0,0,3.37,1.55,8.71,8.71,0,0,0,2.54-.35.51.51,0,0,1,.45.07.47.47,0,0,1,.2.39.88.88,0,0,1-.18.54.85.85,0,0,1-.47.32A11.58,11.58,0,0,1,63.55,66.16Z"/><path class="cls-1" d="M73.6,65.74a.76.76,0,0,1-1.09,0,.76.76,0,0,1-.21-.53V52.86a.76.76,0,0,1,.21-.53.76.76,0,0,1,1.09,0,.76.76,0,0,1,.21.53v4.88a.14.14,0,0,0,.16.15h6.27a.13.13,0,0,0,.15-.15V52.86a.73.73,0,0,1,.22-.53.71.71,0,0,1,.54-.23.77.77,0,0,1,.76.76V65.21a.77.77,0,0,1-.76.76.71.71,0,0,1-.54-.23.73.73,0,0,1-.22-.53V59.28c0-.11,0-.17-.15-.17H74a.15.15,0,0,0-.16.17v5.93A.76.76,0,0,1,73.6,65.74Z"/><path class="cls-1" d="M97,64.29a6.15,6.15,0,0,1-8.83,0A7.83,7.83,0,0,1,86.56,59a7.84,7.84,0,0,1,1.61-5.26,6.15,6.15,0,0,1,8.83,0A7.84,7.84,0,0,1,98.61,59,7.83,7.83,0,0,1,97,64.29Zm-1.1-9.62a4.43,4.43,0,0,0-6.63,0A7.06,7.06,0,0,0,88.12,59a7,7,0,0,0,1.15,4.36,4.43,4.43,0,0,0,6.63,0A7,7,0,0,0,97.05,59,7,7,0,0,0,95.9,54.67Z"/><path class="cls-1" d="M112.85,64.29a6.15,6.15,0,0,1-8.83,0A7.78,7.78,0,0,1,102.41,59,7.79,7.79,0,0,1,104,53.78a6.15,6.15,0,0,1,8.83,0A7.84,7.84,0,0,1,114.46,59,7.83,7.83,0,0,1,112.85,64.29Zm-1.1-9.62a4.43,4.43,0,0,0-6.63,0A7,7,0,0,0,104,59a7,7,0,0,0,1.15,4.36,4.43,4.43,0,0,0,6.63,0A7,7,0,0,0,112.9,59,7.06,7.06,0,0,0,111.75,54.67Z"/><path class="cls-1" d="M120.19,66a1.09,1.09,0,0,1-1.08-1.08v-12a.82.82,0,0,1,.8-.8.77.77,0,0,1,.56.24.76.76,0,0,1,.24.56V64.51c0,.11.05.17.15.17h5.91a.65.65,0,0,1,.64.64.62.62,0,0,1-.19.46.6.6,0,0,1-.45.19Z"/></g></g></g></g></g></svg>