<svg width="81" height="28" viewBox="0 0 81 28" fill="none" xmlns="http://www.w3.org/2000/svg">
<path d="M49.8241 27.9995C46.4792 27.9995 43.7676 25.2879 43.7676 21.943V21.943L80.035 21.943V21.943C80.035 25.2879 77.3234 27.9995 73.9785 27.9995L49.8241 27.9995Z" fill="#C30629"/>
<path d="M51.619 9.77393C47.2828 9.77393 43.7676 13.3015 43.7676 17.653H59.4704C59.4704 13.3015 55.9552 9.77393 51.619 9.77393Z" fill="white"/>
<path d="M72.1835 9.77393C67.8472 9.77393 64.332 13.3015 64.332 17.653H80.0349C80.0349 13.3015 76.5197 9.77393 72.1835 9.77393Z" fill="white"/>
<path d="M0 13.9902C0 20.4983 4.22658 26.0158 10.0755 27.9293C10.7628 28.1541 11.4338 27.6137 11.4338 26.8883V22.5963C11.4338 22.1347 11.1515 21.7254 10.7428 21.5136C8.02933 20.1074 6.17426 17.2662 6.17426 13.9902C6.17426 10.7142 8.02933 7.87298 10.7428 6.46673C11.1515 6.25492 11.4338 5.84564 11.4338 5.38405V1.09207C11.4338 0.366649 10.7628 -0.173771 10.0755 0.0510702C4.22658 1.96452 0 7.48202 0 13.9902Z" fill="white"/>
<path d="M27.8401 13.9902C27.8401 20.4983 23.6135 26.0158 17.7646 27.9293C17.0773 28.1541 16.4062 27.6137 16.4062 26.8883V22.5963C16.4062 22.1347 16.6886 21.7254 17.0973 21.5136C19.8107 20.1074 21.6658 17.2662 21.6658 13.9902C21.6658 10.7142 19.8107 7.87298 17.0973 6.46673C16.6886 6.25492 16.4062 5.84564 16.4062 5.38405V1.09207C16.4062 0.366649 17.0773 -0.173771 17.7646 0.0510702C23.6135 1.96452 27.8401 7.48202 27.8401 13.9902Z" fill="#C30629"/>
<path d="M42.8846 0.427974C43.0955 0.206701 43.3873 0.0815429 43.6924 0.081543L48.6647 0.0815448C49.6535 0.0815451 50.1552 1.27525 49.4651 1.98588L38.4708 13.3075C37.771 14.0281 36.5527 13.531 36.5527 12.5248L36.5527 7.52279C36.5527 7.23401 36.6637 6.95636 36.8626 6.74765L42.8846 0.427974Z" fill="white"/>
<rect x="25.8301" y="0.0170898" width="6.03526" height="27.9831" rx="3" fill="white"/>
</svg>
